# xmcd CD database file
#
# Track frame offsets:
#	150
#	12665
#	25342
#	37952
#	49813
#	62526
#	75713
#	89725
#	102644
#	115658
#	128825
#	141518
#	154730
#	168119
#	183628
#	197196
#	211379
#	226189
#	238509
#	251494
#	265276
#	279367
#	294220
#	309796
#	319118
#	331506
#	344362
#
# Disc length: 4671 seconds
#
# Revision: 1
# Processed by: cddbd v1.5.1PL0 Copyright (c) Steve Scherf et al.
# Submitted via: CDex 1.51
#
DISCID=7d123d1b
DTITLE=Various Artist - Texas Blues: Early Masters From the Lone Star State #A
DYEAR=2004
DGENRE=Blues
TTITLE0=Henry Thomas - John Henry
TTITLE1=Henry Thomas - Cottonfield Blues
TTITLE2=Henry Thomas - Arkansas
TTITLE3=Henry Thomas - Fox And The Hounds, The
TTITLE4=Henry Thomas - Little Red Cabosse, The
TTITLE5=Henry Thomas - Bob McKinney
TTITLE6=Henry Thomas - Red River Blues
TTITLE7=Henry Thomas - Honey, Won't You Allow Me One More Chance
TTITLE8=Henry Thomas - Run, Mollie, Run
TTITLE9=Henry Thomas - Shanty Blues
TTITLE10=Henry Thomas - Woodhouse Blues
TTITLE11=Henry Thomas - Jonah In The Widlerness
TTITLE12=Henry Thomas - When The Train Comes Along
TTITLE13=Henry Thomas - Bull Doze Blues
TTITLE14=Henry Thomas - Don't Ease Me In
TTITLE15=Henry Thomas - Texas Easy Street
TTITLE16=Henry Thomas - Texas Worried Blues
TTITLE17=Henry Thomas - Fishing Blues
TTITLE18=Henry Thomas - Old Country Stomp
TTITLE19=Henry Thomas - Charmin' Betsy
TTITLE20=Henry Thomas - Lovin' Babe
TTITLE21=Henry Thomas - Railroadin' Some
TTITLE22=Henry Thomas - Don't Leave Me Here
TTITLE23=Pete Harris - Jack O'Diamonds
TTITLE24=Pete Harris - Is You Mad At Me
TTITLE25=Pete Harris - Blind Lemon's Song
TTITLE26=Pete Harris - Carrie
EXTD=YEAR: 2004
EXTT0=
EXTT1=
EXTT2=
EXTT3=
EXTT4=
EXTT5=
EXTT6=
EXTT7=
EXTT8=
EXTT9=
EXTT10=
EXTT11=
EXTT12=
EXTT13=
EXTT14=
EXTT15=
EXTT16=
EXTT17=
EXTT18=
EXTT19=
EXTT20=
EXTT21=
EXTT22=
EXTT23=
EXTT24=
EXTT25=
EXTT26=
PLAYORDER=
